<?xml version="1.0" encoding="UTF-8" standalone="no"?>
<svg
   xmlns:dc="http://purl.org/dc/elements/1.1/"
   xmlns:cc="http://creativecommons.org/ns#"
   xmlns:rdf="http://www.w3.org/1999/02/22-rdf-syntax-ns#"
   xmlns:svg="http://www.w3.org/2000/svg"
   xmlns="http://www.w3.org/2000/svg"
   xmlns:sodipodi="http://sodipodi.sourceforge.net/DTD/sodipodi-0.dtd"
   xmlns:inkscape="http://www.inkscape.org/namespaces/inkscape"
   version="1.1"
   id="Ebene_1"
   x="0px"
   y="0px"
   viewBox="0 0 364.67 231.85995"
   xml:space="preserve"
   sodipodi:docname="nfdi4energy_logo.svg"
   width="364.67001"
   height="231.85999"
   inkscape:version="1.0 (4035a4fb49, 2020-05-01)"><metadata
   id="metadata300"><rdf:RDF><cc:Work
       rdf:about=""><dc:format>image/svg+xml</dc:format><dc:type
         rdf:resource="http://purl.org/dc/dcmitype/StillImage" /><dc:title></dc:title></cc:Work></rdf:RDF></metadata><defs
   id="defs560" /><sodipodi:namedview
   id="namedview558"
   pagecolor="#ffffff"
   bordercolor="#000000"
   borderopacity="0.25"
   inkscape:showpageshadow="2"
   inkscape:pageopacity="0.0"
   inkscape:pagecheckerboard="0"
   inkscape:deskcolor="#d1d1d1"
   showgrid="false"
   inkscape:zoom="1.4324912"
   inkscape:cx="198.79441"
   inkscape:cy="234.39566"
   inkscape:window-width="2880"
   inkscape:window-height="1526"
   inkscape:window-x="-11"
   inkscape:window-y="-11"
   inkscape:window-maximized="1"
   inkscape:current-layer="Ebene_1"
   inkscape:document-rotation="0"
   fit-margin-left="-70"
   fit-margin-top="-30"
   fit-margin-right="-20"
   fit-margin-bottom="0" />
<style
   type="text/css"
   id="style2">
	.st0{fill:url(#SVGID_1_);}
	.st1{filter:url(#Adobe_OpacityMaskFilter);}
	.st2{filter:url(#Adobe_OpacityMaskFilter_00000088135261220462699080000010572727977649791403_);}
	
		.st3{mask:url(#SVGID_00000000933833666366080850000010198397604822759319_);fill:url(#SVGID_00000133515076362045251530000010600051808505854902_);}
	.st4{fill:url(#SVGID_00000058567674139186080830000012797807251379318150_);}
	.st5{fill:url(#SVGID_00000113331350211040572940000005289488349245814197_);}
	.st6{fill:url(#SVGID_00000047020212547222792200000003205708162374799791_);}
	.st7{fill:url(#SVGID_00000036939365430951006060000003592008157922920633_);}
	.st8{filter:url(#Adobe_OpacityMaskFilter_00000128477919027718182900000017180748054190106768_);}
	.st9{filter:url(#Adobe_OpacityMaskFilter_00000010294064779223348230000011744514220890751649_);}
	
		.st10{mask:url(#SVGID_00000180360856789069728840000001400279279504493465_);fill:url(#SVGID_00000148657908762499479630000014830634879659254171_);}
	.st11{fill:url(#SVGID_00000104665477892252104080000005201208312900354439_);}
	.st12{fill:url(#SVGID_00000139262192367282379770000002608981751312622997_);}
	.st13{fill:#499FAE;stroke:#499FAE;stroke-width:1.3696;stroke-miterlimit:10;}
	.st14{fill:#9C9B9B;stroke:#9C9B9B;stroke-width:1.3696;stroke-miterlimit:10;}
	.st15{fill:#D60077;}
	.st16{fill:none;}
	.st17{fill:url(#SVGID_00000099643603772416540630000011434708456096154254_);}
	.st18{filter:url(#Adobe_OpacityMaskFilter_00000133499669073853579160000002693037686735343780_);}
	.st19{filter:url(#Adobe_OpacityMaskFilter_00000139271405204594341590000008516528514296421775_);}
	
		.st20{mask:url(#SVGID_00000063611537194612437990000000919309653165618365_);fill:url(#SVGID_00000085972654959271749460000015223803735776500390_);}
	.st21{fill:url(#SVGID_00000010998618030488676240000012358239432500692154_);}
	.st22{fill:url(#SVGID_00000061471584858472997840000006864797831449206410_);}
	.st23{filter:url(#Adobe_OpacityMaskFilter_00000078743298658424150860000015806082104896849797_);}
	.st24{filter:url(#Adobe_OpacityMaskFilter_00000132781418290667712430000013090243397856459653_);}
	
		.st25{mask:url(#SVGID_00000028318127662341895690000016919961171114140308_);fill:url(#SVGID_00000118384796574595833940000007239429344768199093_);}
	.st26{fill:url(#SVGID_00000160887512318047239030000011463446275833059991_);}
	.st27{fill:url(#SVGID_00000093155844547346409500000006768822341216128934_);}
	.st28{filter:url(#Adobe_OpacityMaskFilter_00000118356050831940859560000002389298056780862397_);}
	.st29{filter:url(#Adobe_OpacityMaskFilter_00000036948090271565034990000002764749219884705934_);}
	
		.st30{mask:url(#SVGID_00000060003856008826197480000016594927157135541932_);fill:url(#SVGID_00000062876151978494961180000017864117431933437828_);}
	.st31{fill:url(#SVGID_00000129197865311975537870000011934336013869560490_);}
	.st32{fill:url(#SVGID_00000135658630364766788280000008090536199173128885_);}
	.st33{fill:url(#SVGID_00000017478220162058171750000010830364713267041941_);}
</style>
<g
   id="g90"
   transform="translate(-271.64,-154.83)">
	
		<radialGradient
   id="SVGID_1_"
   cx="338.59579"
   cy="842.73071"
   r="13.7853"
   gradientTransform="matrix(-0.1392,-0.9903,0.9903,-0.1392,-461.7927,706.0108)"
   gradientUnits="userSpaceOnUse">
		<stop
   offset="0"
   style="stop-color:#FFFFFF"
   id="stop4" />
		<stop
   offset="0.1319"
   style="stop-color:#F5D0E4"
   id="stop6" />
		<stop
   offset="0.3203"
   style="stop-color:#EC91BC"
   id="stop8" />
		<stop
   offset="0.3257"
   style="stop-color:#EC8EBA"
   id="stop10" />
		<stop
   offset="0.4042"
   style="stop-color:#E766A5"
   id="stop12" />
		<stop
   offset="0.476"
   style="stop-color:#E34996"
   id="stop14" />
		<stop
   offset="0.538"
   style="stop-color:#E1378C"
   id="stop16" />
		<stop
   offset="0.5832"
   style="stop-color:#E03189"
   id="stop18" />
		<stop
   offset="0.6097"
   style="stop-color:#E34795"
   id="stop20" />
		<stop
   offset="0.6601"
   style="stop-color:#E76AA8"
   id="stop22" />
		<stop
   offset="0.7112"
   style="stop-color:#EB85B7"
   id="stop24" />
		<stop
   offset="0.7628"
   style="stop-color:#ED98C2"
   id="stop26" />
		<stop
   offset="0.8149"
   style="stop-color:#EFA4C8"
   id="stop28" />
		<stop
   offset="0.8687"
   style="stop-color:#EFA8CA"
   id="stop30" />
		<stop
   offset="1"
   style="stop-color:#FFFFFF"
   id="stop32" />
	</radialGradient>
	<path
   class="st0"
   d="m 326.23,247.22 c 3.66,-0.51 7.04,2.03 7.55,5.69 0.51,3.66 -2.03,7.04 -5.69,7.55 -3.66,0.51 -7.04,-2.03 -7.56,-5.69 -0.51,-3.65 2.04,-7.03 5.7,-7.55 z"
   id="path35"
   style="fill:url(#SVGID_1_)" />
	<defs
   id="defs42">
		<filter
   id="Adobe_OpacityMaskFilter"
   filterUnits="userSpaceOnUse"
   x="321.32999"
   y="250.17999"
   width="3.9100001"
   height="8.1800003">
			<feFlood
   result="back"
   id="feFlood37" />
			<feBlend
   in="SourceGraphic"
   in2="back"
   mode="normal"
   id="feBlend39" />
		</filter>
	</defs>
	
		<mask
   maskUnits="userSpaceOnUse"
   x="321.33"
   y="250.18"
   width="3.91"
   height="8.18"
   id="mask79">
		<g
   class="st1"
   id="g77">
			<defs
   id="defs49">
				
					<filter
   id="Adobe_OpacityMaskFilter_00000022531101984268262080000002053362527260419760_"
   filterUnits="userSpaceOnUse"
   x="321.32999"
   y="250.17999"
   width="3.9100001"
   height="8.1800003">
					<feFlood
   result="back"
   id="feFlood44" />
					<feBlend
   in="SourceGraphic"
   in2="back"
   mode="normal"
   id="feBlend46" />
				</filter>
			</defs>
			
				<mask
   maskUnits="userSpaceOnUse"
   x="321.33"
   y="250.18"
   width="3.91"
   height="8.18"
   id="SVGID_00000171696772821885383490000009844706320658263220_">
				<g
   style="filter:url(#Adobe_OpacityMaskFilter_00000022531101984268262080000002053362527260419760_)"
   id="g51">
				</g>
			</mask>
			
				<radialGradient
   id="SVGID_00000157284167593005816340000018266783239123282825_"
   cx="338.51871"
   cy="833.90869"
   r="19.483"
   gradientTransform="matrix(-0.1392,-0.9903,0.9903,-0.1392,-461.7927,706.0108)"
   gradientUnits="userSpaceOnUse">
				<stop
   offset="0"
   style="stop-color:#F2F2F2"
   id="stop54" />
				<stop
   offset="0.0431"
   style="stop-color:#EEEEEE"
   id="stop56" />
				<stop
   offset="0.0919"
   style="stop-color:#E0E0E0"
   id="stop58" />
				<stop
   offset="0.1436"
   style="stop-color:#C9C9C9"
   id="stop60" />
				<stop
   offset="0.1968"
   style="stop-color:#AAAAAA"
   id="stop62" />
				<stop
   offset="0.2023"
   style="stop-color:#A6A6A6"
   id="stop64" />
				<stop
   offset="0.2574"
   style="stop-color:#767676"
   id="stop66" />
				<stop
   offset="0.3371"
   style="stop-color:#373737"
   id="stop68" />
				<stop
   offset="0.3953"
   style="stop-color:#0F0F0F"
   id="stop70" />
				<stop
   offset="0.4256"
   style="stop-color:#000000"
   id="stop72" />
			</radialGradient>
			
				<path
   style="fill:url(#SVGID_00000157284167593005816340000018266783239123282825_)"
   d="m 323.44,250.19 c 1.45,-0.2 0.6,1.62 0.91,3.87 0.32,2.25 1.68,4.07 0.23,4.27 -1.45,0.2 -2.88,-1.46 -3.19,-3.7 -0.31,-2.25 0.61,-4.23 2.05,-4.44 z"
   mask="url(#SVGID_00000171696772821885383490000009844706320658263220_)"
   id="path75" />
		</g>
	</mask>
	
		<radialGradient
   id="SVGID_00000110435064802559962770000001522956535514118332_"
   cx="338.51871"
   cy="833.90869"
   r="19.483"
   gradientTransform="matrix(-0.1392,-0.9903,0.9903,-0.1392,-461.7927,706.0108)"
   gradientUnits="userSpaceOnUse">
		<stop
   offset="0"
   style="stop-color:#FFFFFF"
   id="stop81" />
		<stop
   offset="0.2023"
   style="stop-color:#FFFFFF"
   id="stop83" />
		<stop
   offset="0.4256"
   style="stop-color:#FFFFFF"
   id="stop85" />
	</radialGradient>
	<path
   style="fill:url(#SVGID_00000110435064802559962770000001522956535514118332_)"
   d="m 323.44,250.19 c 1.45,-0.2 0.6,1.62 0.91,3.87 0.32,2.25 1.68,4.07 0.23,4.27 -1.45,0.2 -2.88,-1.46 -3.19,-3.7 -0.31,-2.25 0.61,-4.23 2.05,-4.44 z"
   id="path88" />
</g>
<radialGradient
   id="SVGID_00000163753232300304298710000014554370833153892246_"
   cx="380.53311"
   cy="855.19452"
   r="110.6528"
   gradientTransform="matrix(-0.1392,-0.9903,0.9903,-0.1392,-733.4327,551.1808)"
   gradientUnits="userSpaceOnUse">
	<stop
   offset="0"
   style="stop-color:#E9EDF1"
   id="stop92" />
	<stop
   offset="0.1406"
   style="stop-color:#CEDEE6"
   id="stop94" />
	<stop
   offset="0.4412"
   style="stop-color:#89B8CB"
   id="stop96" />
	<stop
   offset="0.5531"
   style="stop-color:#6EA9C0"
   id="stop98" />
	<stop
   offset="0.6623"
   style="stop-color:#65A1B7"
   id="stop100" />
	<stop
   offset="0.8412"
   style="stop-color:#4C8B9F"
   id="stop102" />
	<stop
   offset="1"
   style="stop-color:#317285"
   id="stop104" />
</radialGradient>
<path
   style="fill:url(#SVGID_00000163753232300304298710000014554370833153892246_)"
   d="m 42.88,66.829995 c -1.58,0.22 -4.48,1.37 -5.99,1.76 -0.57,0.31 -1.15,0.62 -1.7,0.95 C 33.76,70.98 31.8,73.57 32.65,76.26 c 1.39,4.43 7.22,4.67 18.05,1.21 8.31,-2.65 16.95,-2.03 24.76,1.13 C 66.21,67.779995 55.76,65.019995 42.88,66.829995 Z"
   id="path107" />
<radialGradient
   id="SVGID_00000057124213637346741930000010427831165782904966_"
   cx="333.5585"
   cy="784.39258"
   r="147.1499"
   gradientTransform="matrix(-0.1392,-0.9903,0.9903,-0.1392,-733.4327,551.1808)"
   gradientUnits="userSpaceOnUse">
	<stop
   offset="0"
   style="stop-color:#E9EDF1"
   id="stop109" />
	<stop
   offset="0.1406"
   style="stop-color:#CEDEE6"
   id="stop111" />
	<stop
   offset="0.4412"
   style="stop-color:#89B8CB"
   id="stop113" />
	<stop
   offset="0.5531"
   style="stop-color:#6EA9C0"
   id="stop115" />
	<stop
   offset="0.6623"
   style="stop-color:#65A1B7"
   id="stop117" />
	<stop
   offset="0.8412"
   style="stop-color:#4C8B9F"
   id="stop119" />
	<stop
   offset="1"
   style="stop-color:#317285"
   id="stop121" />
</radialGradient>
<path
   style="fill:url(#SVGID_00000057124213637346741930000010427831165782904966_)"
   d="m 52.53,63.009995 c -0.29,0.05 -0.57,0.12 -0.86,0.18 -0.56,0.12 -1.12,0.23 -1.67,0.36 -0.34,0.08 -0.68,0.17 -1.01,0.26 -0.49,0.13 -0.98,0.26 -1.47,0.4 -0.36,0.11 -0.71,0.22 -1.06,0.33 -0.46,0.14 -0.91,0.28 -1.36,0.44 -0.36,0.12 -0.73,0.25 -1.08,0.39 -0.43,0.15 -0.86,0.32 -1.28,0.48 -0.36,0.14 -0.72,0.29 -1.08,0.44 -0.41,0.17 -0.82,0.35 -1.23,0.54 -0.36,0.16 -0.71,0.32 -1.06,0.49 -0.41,0.19 -0.8,0.39 -1.2,0.6 -0.34,0.17 -0.68,0.35 -1.02,0.53 -0.08,0.05 -0.17,0.1 -0.25,0.14 1.51,-0.4 3.05,-0.71 4.64,-0.93 12.88,-1.81 25.2,2.600005 33.93,10.950005 6.41,6.13 10.89,14.37 12.22,23.83 2.59,18.46 -7.59,35.77 -23.81,43 -3.42,1.52 -7.09,2.61 -10.97,3.16 -19.24,2.7 -37.209997,-8.46 -43.849997,-25.86 0.04,0.29 0.06,0.57 0.1,0.86 4.15,29.54 31.459997,50.13 60.999997,45.97 29.54,-4.15 50.12,-31.46 45.97,-61.01 -4.15,-29.54 -31.46,-50.120005 -61,-45.970005 -0.89,0.11 -1.75,0.26 -2.6,0.42 z"
   id="path124" />
<g
   id="g212"
   transform="translate(-271.64,-154.83)">
	
		<radialGradient
   id="SVGID_00000181060365149177559860000004898057080955209603_"
   cx="326.18451"
   cy="835.32867"
   r="20.7696"
   gradientTransform="matrix(-0.1392,-0.9903,0.9903,-0.1392,-461.7927,706.0108)"
   gradientUnits="userSpaceOnUse">
		<stop
   offset="0"
   style="stop-color:#FFFFFF"
   id="stop126" />
		<stop
   offset="0.1319"
   style="stop-color:#F5D0E4"
   id="stop128" />
		<stop
   offset="0.3203"
   style="stop-color:#EC91BC"
   id="stop130" />
		<stop
   offset="0.3257"
   style="stop-color:#EC8EBA"
   id="stop132" />
		<stop
   offset="0.4042"
   style="stop-color:#E766A5"
   id="stop134" />
		<stop
   offset="0.476"
   style="stop-color:#E34996"
   id="stop136" />
		<stop
   offset="0.538"
   style="stop-color:#E1378C"
   id="stop138" />
		<stop
   offset="0.5832"
   style="stop-color:#E03189"
   id="stop140" />
		<stop
   offset="0.6097"
   style="stop-color:#E34795"
   id="stop142" />
		<stop
   offset="0.6601"
   style="stop-color:#E76AA8"
   id="stop144" />
		<stop
   offset="0.7112"
   style="stop-color:#EB85B7"
   id="stop146" />
		<stop
   offset="0.7628"
   style="stop-color:#ED98C2"
   id="stop148" />
		<stop
   offset="0.8149"
   style="stop-color:#EFA4C8"
   id="stop150" />
		<stop
   offset="0.8687"
   style="stop-color:#EFA8CA"
   id="stop152" />
		<stop
   offset="1"
   style="stop-color:#FFFFFF"
   id="stop154" />
	</radialGradient>
	<path
   style="fill:url(#SVGID_00000181060365149177559860000004898057080955209603_)"
   d="m 320.93,257.39 c 5.51,-0.77 10.6,3.06 11.38,8.57 0.77,5.51 -3.06,10.61 -8.57,11.38 -5.51,0.77 -10.61,-3.06 -11.38,-8.58 -0.78,-5.5 3.06,-10.59 8.57,-11.37 z"
   id="path157" />
	<defs
   id="defs164">
		
			<filter
   id="Adobe_OpacityMaskFilter_00000098900313131852833540000011281308130023628176_"
   filterUnits="userSpaceOnUse"
   x="313.56"
   y="261.84"
   width="5.8899999"
   height="12.32">
			<feFlood
   result="back"
   id="feFlood159" />
			<feBlend
   in="SourceGraphic"
   in2="back"
   mode="normal"
   id="feBlend161" />
		</filter>
	</defs>
	
		<mask
   maskUnits="userSpaceOnUse"
   x="313.56"
   y="261.84"
   width="5.89"
   height="12.32"
   id="mask201">
		<g
   style="filter:url(#Adobe_OpacityMaskFilter_00000098900313131852833540000011281308130023628176_)"
   id="g199">
			<defs
   id="defs171">
				
					<filter
   id="Adobe_OpacityMaskFilter_00000162342119668355933770000016658327423736894369_"
   filterUnits="userSpaceOnUse"
   x="313.56"
   y="261.84"
   width="5.8899999"
   height="12.32">
					<feFlood
   result="back"
   id="feFlood166" />
					<feBlend
   in="SourceGraphic"
   in2="back"
   mode="normal"
   id="feBlend168" />
				</filter>
			</defs>
			
				<mask
   maskUnits="userSpaceOnUse"
   x="313.56"
   y="261.84"
   width="5.89"
   height="12.32"
   id="SVGID_00000162313460514409985570000006201255471313205166_">
				<g
   style="filter:url(#Adobe_OpacityMaskFilter_00000162342119668355933770000016658327423736894369_)"
   id="g173">
				</g>
			</mask>
			
				<radialGradient
   id="SVGID_00000101806515678132802110000014599795798061646263_"
   cx="326.0683"
   cy="822.03699"
   r="29.354099"
   gradientTransform="matrix(-0.1392,-0.9903,0.9903,-0.1392,-461.7927,706.0108)"
   gradientUnits="userSpaceOnUse">
				<stop
   offset="0"
   style="stop-color:#F2F2F2"
   id="stop176" />
				<stop
   offset="0.0431"
   style="stop-color:#EEEEEE"
   id="stop178" />
				<stop
   offset="0.0919"
   style="stop-color:#E0E0E0"
   id="stop180" />
				<stop
   offset="0.1436"
   style="stop-color:#C9C9C9"
   id="stop182" />
				<stop
   offset="0.1968"
   style="stop-color:#AAAAAA"
   id="stop184" />
				<stop
   offset="0.2023"
   style="stop-color:#A6A6A6"
   id="stop186" />
				<stop
   offset="0.2574"
   style="stop-color:#767676"
   id="stop188" />
				<stop
   offset="0.3371"
   style="stop-color:#373737"
   id="stop190" />
				<stop
   offset="0.3953"
   style="stop-color:#0F0F0F"
   id="stop192" />
				<stop
   offset="0.4256"
   style="stop-color:#000000"
   id="stop194" />
			</radialGradient>
			
				<path
   style="fill:url(#SVGID_00000101806515678132802110000014599795798061646263_)"
   d="m 316.74,261.87 c 2.18,-0.31 0.9,2.44 1.37,5.83 0.48,3.39 2.53,6.13 0.35,6.44 -2.18,0.31 -4.33,-2.19 -4.81,-5.58 -0.47,-3.39 0.91,-6.39 3.09,-6.69 z"
   mask="url(#SVGID_00000162313460514409985570000006201255471313205166_)"
   id="path197" />
		</g>
	</mask>
	
		<radialGradient
   id="SVGID_00000122718901001032529940000004334000954915007165_"
   cx="326.0683"
   cy="822.03699"
   r="29.354099"
   gradientTransform="matrix(-0.1392,-0.9903,0.9903,-0.1392,-461.7927,706.0108)"
   gradientUnits="userSpaceOnUse">
		<stop
   offset="0"
   style="stop-color:#FFFFFF"
   id="stop203" />
		<stop
   offset="0.2023"
   style="stop-color:#FFFFFF"
   id="stop205" />
		<stop
   offset="0.4256"
   style="stop-color:#FFFFFF"
   id="stop207" />
	</radialGradient>
	<path
   style="fill:url(#SVGID_00000122718901001032529940000004334000954915007165_)"
   d="m 316.74,261.87 c 2.18,-0.31 0.9,2.44 1.37,5.83 0.48,3.39 2.53,6.13 0.35,6.44 -2.18,0.31 -4.33,-2.19 -4.81,-5.58 -0.47,-3.39 0.91,-6.39 3.09,-6.69 z"
   id="path210" />
</g>
<radialGradient
   id="SVGID_00000054980143215116319190000012529982879302814129_"
   cx="312.86639"
   cy="839.38739"
   r="69.870201"
   gradientTransform="matrix(-0.1392,-0.9903,0.9903,-0.1392,-733.4327,551.1808)"
   gradientUnits="userSpaceOnUse">
	<stop
   offset="0"
   style="stop-color:#F39821"
   id="stop214" />
	<stop
   offset="0.418"
   style="stop-color:#E62063"
   id="stop216" />
	<stop
   offset="0.8571"
   style="stop-color:#462C74"
   id="stop218" />
	<stop
   offset="0.8839"
   style="stop-color:#4C2C73"
   id="stop220" />
	<stop
   offset="0.9193"
   style="stop-color:#5D2B72"
   id="stop222" />
	<stop
   offset="0.9596"
   style="stop-color:#782A6F"
   id="stop224" />
	<stop
   offset="1"
   style="stop-color:#9B296C"
   id="stop226" />
</radialGradient>
<path
   style="fill:url(#SVGID_00000054980143215116319190000012529982879302814129_)"
   d="m 18.940003,126.12 c 0.04,0.26 0.06,0.53 0.09,0.78 -0.04,-0.26 -0.06,-0.52 -0.09,-0.78 z"
   id="path229" />
<g
   id="g241"
   transform="translate(-271.64,-154.83)">
	<path
   class="st13"
   d="m 432.61,255.21 v 21.08 c 0,1.42 -1.11,2.53 -2.53,2.53 -1.42,0 -2.53,-1.1 -2.53,-2.53 v -20.05 c 0,-6.24 -1.82,-10.5 -9.47,-10.5 -7.81,0 -10.5,4.74 -10.5,11.05 v 19.5 c 0,1.42 -1.11,2.53 -2.53,2.53 -1.42,0 -2.53,-1.1 -2.53,-2.53 v -32.05 c 0,-1.42 1.1,-2.53 2.53,-2.53 1.42,0 2.53,1.1 2.53,2.53 v 2.53 c 1.5,-3 5.37,-5.53 10.5,-5.53 12.17,0 14.53,7.26 14.53,13.97 z"
   id="path231" />
	<path
   class="st13"
   d="m 440.98,247.08 c -1.34,0 -2.37,-1.03 -2.37,-2.37 0,-1.34 1.03,-2.37 2.37,-2.37 h 2.68 v -4.66 c 0,-7.1 4.03,-13.58 13.66,-13.58 1.34,0 2.37,1.03 2.37,2.37 0,1.34 -1.03,2.37 -2.37,2.37 -6.16,0 -8.6,3.71 -8.6,8.84 v 4.66 h 7.18 c 1.34,0 2.37,1.03 2.37,2.37 0,1.34 -1.03,2.37 -2.37,2.37 h -7.18 v 29.21 c 0,1.42 -1.11,2.53 -2.53,2.53 -1.42,0 -2.53,-1.1 -2.53,-2.53 v -29.21 z"
   id="path233" />
	<path
   class="st13"
   d="m 489.13,246.37 v -21.86 c 0,-1.42 1.11,-2.53 2.53,-2.53 1.42,0 2.53,1.1 2.53,2.53 v 39.15 c 0,10.42 -6.47,15.55 -15.47,15.55 -10.18,0 -16.18,-6.08 -16.18,-19.02 0,-12.94 5.68,-18.94 15.87,-18.94 5.04,-0.01 8.91,2.6 10.72,5.12 z m 0,6.4 c 0,0 -3,-6.95 -10.42,-6.95 -7.18,0 -11.13,4.66 -11.13,14.37 0,9.87 3.87,14.44 11.13,14.44 6.08,0 10.42,-3.47 10.42,-10.97 z"
   id="path235" />
	<path
   class="st13"
   d="m 503.89,231.3 c 0,-2.29 1.11,-3.16 3,-3.16 1.89,0 3,0.87 3,3.16 0,1.89 -1.1,3 -3,3 -1.9,0 -3,-1.11 -3,-3 z m 5.53,44.99 c 0,1.42 -1.1,2.53 -2.53,2.53 -1.43,0 -2.53,-1.1 -2.53,-2.53 v -32.05 c 0,-1.42 1.11,-2.53 2.53,-2.53 1.42,0 2.53,1.1 2.53,2.53 z"
   id="path237" />
	<path
   class="st14"
   d="m 551.81,261.05 c 1.42,0 2.53,1.03 2.53,2.37 0,1.42 -1.1,2.53 -2.53,2.53 h -4.5 v 10.26 c 0,1.42 -1.18,2.6 -2.6,2.6 -1.42,0 -2.6,-1.18 -2.6,-2.6 v -10.26 h -23.05 c -1.34,0 -2.45,-1.1 -2.45,-2.45 0,-0.55 0.16,-1.03 0.55,-1.58 l 25.42,-36.31 c 0.47,-0.63 1.1,-1.1 2.13,-1.1 1.42,0 2.6,1.18 2.6,2.6 v 33.94 z m -9.71,0 v -26.52 l -18.47,26.52 z"
   id="path239" />
</g>
<g
   id="g255"
   transform="translate(-271.64,-154.83)">
	<path
   class="st15"
   d="m 409.62,289.52 c 9.6,0 11.46,7.62 11.46,11.7 0,1.74 0,3.84 -2.4,3.84 h -17.52 c 0,5.94 3.42,9.78 9.06,9.78 3.48,0 5.52,-1.32 7.2,-2.58 0.36,-0.24 0.6,-0.36 1.08,-0.36 0.96,0 1.74,0.78 1.74,1.74 0,0.66 -0.3,1.02 -0.66,1.38 -0.9,0.9 -4.02,3.36 -9.36,3.36 -7.98,0 -12.96,-4.38 -12.96,-14.46 0,-9.24 4.56,-14.4 12.36,-14.4 z m 0,3.48 c -5.22,0 -8.1,3.36 -8.46,8.7 h 16.14 c 0,-4.32 -1.5,-8.7 -7.68,-8.7 z"
   id="path243" />
	<path
   class="st15"
   d="m 449.88,300.14 v 16.02 c 0,1.08 -0.84,1.92 -1.92,1.92 -1.08,0 -1.92,-0.84 -1.92,-1.92 v -15.24 c 0,-4.74 -1.38,-7.98 -7.2,-7.98 -5.94,0 -7.98,3.6 -7.98,8.4 v 14.82 c 0,1.08 -0.84,1.92 -1.92,1.92 -1.08,0 -1.92,-0.84 -1.92,-1.92 V 291.8 c 0,-1.08 0.84,-1.92 1.92,-1.92 1.08,0 1.92,0.84 1.92,1.92 v 1.92 c 1.14,-2.28 4.08,-4.2 7.98,-4.2 9.24,0 11.04,5.52 11.04,10.62 z"
   id="path245" />
	<path
   class="st15"
   d="m 467.64,289.52 c 9.6,0 11.46,7.62 11.46,11.7 0,1.74 0,3.84 -2.4,3.84 h -17.52 c 0,5.94 3.42,9.78 9.06,9.78 3.48,0 5.52,-1.32 7.2,-2.58 0.36,-0.24 0.6,-0.36 1.08,-0.36 0.96,0 1.74,0.78 1.74,1.74 0,0.66 -0.3,1.02 -0.66,1.38 -0.9,0.9 -4.02,3.36 -9.36,3.36 -7.98,0 -12.96,-4.38 -12.96,-14.46 0,-9.24 4.56,-14.4 12.36,-14.4 z m 0,3.48 c -5.22,0 -8.1,3.36 -8.46,8.7 h 16.14 c 0,-4.32 -1.5,-8.7 -7.68,-8.7 z"
   id="path247" />
	<path
   class="st15"
   d="m 488.88,294.44 c 1.2,-2.76 4.2,-4.8 8.34,-4.8 1.02,0 1.86,0.84 1.86,1.86 0,1.02 -0.84,1.86 -1.86,1.86 -5.52,0 -8.34,3.84 -8.34,9.36 v 13.44 c 0,1.08 -0.84,1.92 -1.92,1.92 -1.08,0 -1.92,-0.84 -1.92,-1.92 V 291.8 c 0,-1.08 0.84,-1.92 1.92,-1.92 1.08,0 1.92,0.84 1.92,1.92 z"
   id="path249" />
	<path
   class="st15"
   d="m 519.54,291.02 c 1.02,-1.86 2.34,-3.24 5.34,-3.24 0.96,0 1.74,0.78 1.74,1.74 0,0.96 -0.78,1.74 -1.74,1.74 -1.8,0 -2.46,0.9 -2.88,1.86 1.38,1.68 2.16,3.9 2.16,6.48 0,6.12 -4.08,10.08 -11.04,10.08 -2.58,0 -4.8,-0.54 -6.48,-1.5 -0.66,0.54 -1.08,1.2 -1.08,2.16 0,1.26 0.84,2.52 4.44,2.52 h 6.18 c 5.82,0 10.5,2.52 10.5,8.16 0,6.24 -5.64,8.64 -12.9,8.64 -6.18,0 -12.78,-1.8 -12.78,-8.4 0,-2.76 1.74,-4.92 4.56,-6.06 -2.22,-0.72 -3.72,-2.52 -3.72,-4.86 0,-1.8 0.96,-3.24 2.4,-4.2 -1.44,-1.8 -2.16,-3.96 -2.16,-6.54 0,-6.12 4.08,-10.08 11.04,-10.08 2.46,0 4.74,0.54 6.42,1.5 z m -3.36,25.44 h -6.24 c -3.48,0.6 -5.04,2.4 -5.04,4.8 0,3.66 4.2,5.04 8.94,5.04 4.74,0 8.94,-1.38 8.94,-5.28 0,-3.3 -2.7,-4.56 -6.6,-4.56 z m 4.08,-16.86 c 0,-3.96 -2.52,-6.6 -7.14,-6.6 -4.62,0 -7.14,2.64 -7.14,6.6 0,3.96 2.52,6.6 7.14,6.6 4.62,0 7.14,-2.64 7.14,-6.6 z"
   id="path251" />
	<path
   class="st15"
   d="M 541.02,316.46 531,292.64 c -0.06,-0.18 -0.18,-0.42 -0.18,-0.84 0,-1.08 0.84,-1.92 1.92,-1.92 1.08,0 1.56,0.66 1.8,1.26 l 8.46,20.7 8.46,-20.7 c 0.24,-0.6 0.72,-1.26 1.8,-1.26 1.08,0 1.92,0.84 1.92,1.92 0,0.42 -0.12,0.66 -0.18,0.84 l -11.82,28.14 c -2.46,5.88 -5.52,8.88 -11.22,8.88 -1.02,0 -1.8,-0.78 -1.8,-1.8 0,-1.02 0.78,-1.8 1.8,-1.8 5.22,0 6.6,-3.54 9.06,-9.6 z"
   id="path253" />
</g>
<rect
   x="-70"
   y="-30"
   class="st16"
   width="454.67001"
   height="261.85999"
   id="rect257" />
<g
   id="g345"
   transform="translate(-271.64,-154.83)">
	
		<radialGradient
   id="SVGID_00000147210057068686913670000013105118356375708057_"
   cx="339.5686"
   cy="877.54401"
   r="21.8267"
   gradientTransform="matrix(-0.1245,-0.886,0.886,-0.1245,-397.7406,658.8172)"
   gradientUnits="userSpaceOnUse">
		<stop
   offset="0"
   style="stop-color:#FFFFFF"
   id="stop259" />
		<stop
   offset="0.1319"
   style="stop-color:#F5D0E4"
   id="stop261" />
		<stop
   offset="0.3203"
   style="stop-color:#EC91BC"
   id="stop263" />
		<stop
   offset="0.3257"
   style="stop-color:#EC8EBA"
   id="stop265" />
		<stop
   offset="0.4042"
   style="stop-color:#E766A5"
   id="stop267" />
		<stop
   offset="0.476"
   style="stop-color:#E34996"
   id="stop269" />
		<stop
   offset="0.538"
   style="stop-color:#E1378C"
   id="stop271" />
		<stop
   offset="0.5832"
   style="stop-color:#E03189"
   id="stop273" />
		<stop
   offset="0.6097"
   style="stop-color:#E34795"
   id="stop275" />
		<stop
   offset="0.6601"
   style="stop-color:#E76AA8"
   id="stop277" />
		<stop
   offset="0.7112"
   style="stop-color:#EB85B7"
   id="stop279" />
		<stop
   offset="0.7628"
   style="stop-color:#ED98C2"
   id="stop281" />
		<stop
   offset="0.8149"
   style="stop-color:#EFA4C8"
   id="stop283" />
		<stop
   offset="0.8687"
   style="stop-color:#EFA8CA"
   id="stop285" />
		<stop
   offset="1"
   style="stop-color:#FFFFFF"
   id="stop287" />
	</radialGradient>
	<path
   style="fill:url(#SVGID_00000147210057068686913670000013105118356375708057_)"
   d="m 338.37,239.88 c 5.18,-0.73 9.97,2.88 10.7,8.06 0.73,5.18 -2.88,9.97 -8.06,10.7 -5.18,0.73 -9.98,-2.88 -10.7,-8.06 -0.73,-5.18 2.88,-9.97 8.06,-10.7 z"
   id="path290" />
	<defs
   id="defs297">
		
			<filter
   id="Adobe_OpacityMaskFilter_00000034795320888496422690000017728152871987984044_"
   filterUnits="userSpaceOnUse"
   x="331.44"
   y="244.07001"
   width="5.54"
   height="11.58">
			<feFlood
   result="back"
   id="feFlood292" />
			<feBlend
   in="SourceGraphic"
   in2="back"
   mode="normal"
   id="feBlend294" />
		</filter>
	</defs>
	
		<mask
   maskUnits="userSpaceOnUse"
   x="331.44"
   y="244.07"
   width="5.54"
   height="11.58"
   id="mask334">
		<g
   style="filter:url(#Adobe_OpacityMaskFilter_00000034795320888496422690000017728152871987984044_)"
   id="g332">
			<defs
   id="defs304">
				
					<filter
   id="Adobe_OpacityMaskFilter_00000106853181617169559720000001231426495165827989_"
   filterUnits="userSpaceOnUse"
   x="331.44"
   y="244.07001"
   width="5.54"
   height="11.58">
					<feFlood
   result="back"
   id="feFlood299" />
					<feBlend
   in="SourceGraphic"
   in2="back"
   mode="normal"
   id="feBlend301" />
				</filter>
			</defs>
			
				<mask
   maskUnits="userSpaceOnUse"
   x="331.44"
   y="244.07"
   width="5.54"
   height="11.58"
   id="SVGID_00000020365489087716283400000007921242315772231571_">
				<g
   style="filter:url(#Adobe_OpacityMaskFilter_00000106853181617169559720000001231426495165827989_)"
   id="g306">
				</g>
			</mask>
			
				<radialGradient
   id="SVGID_00000126288385322377823130000012947993954799490474_"
   cx="339.4465"
   cy="863.57593"
   r="30.848101"
   gradientTransform="matrix(-0.1245,-0.886,0.886,-0.1245,-397.7406,658.8172)"
   gradientUnits="userSpaceOnUse">
				<stop
   offset="0"
   style="stop-color:#F2F2F2"
   id="stop309" />
				<stop
   offset="0.0431"
   style="stop-color:#EEEEEE"
   id="stop311" />
				<stop
   offset="0.0919"
   style="stop-color:#E0E0E0"
   id="stop313" />
				<stop
   offset="0.1436"
   style="stop-color:#C9C9C9"
   id="stop315" />
				<stop
   offset="0.1968"
   style="stop-color:#AAAAAA"
   id="stop317" />
				<stop
   offset="0.2023"
   style="stop-color:#A6A6A6"
   id="stop319" />
				<stop
   offset="0.2574"
   style="stop-color:#767676"
   id="stop321" />
				<stop
   offset="0.3371"
   style="stop-color:#373737"
   id="stop323" />
				<stop
   offset="0.3953"
   style="stop-color:#0F0F0F"
   id="stop325" />
				<stop
   offset="0.4256"
   style="stop-color:#000000"
   id="stop327" />
			</radialGradient>
			
				<path
   style="fill:url(#SVGID_00000126288385322377823130000012947993954799490474_)"
   d="m 334.43,244.09 c 2.05,-0.29 0.85,2.3 1.29,5.48 0.45,3.19 2.38,5.77 0.33,6.05 -2.05,0.29 -4.07,-2.06 -4.52,-5.25 -0.45,-3.18 0.85,-5.99 2.9,-6.28 z"
   mask="url(#SVGID_00000020365489087716283400000007921242315772231571_)"
   id="path330" />
		</g>
	</mask>
	
		<radialGradient
   id="SVGID_00000132089150794778828020000012345715230768394648_"
   cx="339.4465"
   cy="863.57593"
   r="30.848101"
   gradientTransform="matrix(-0.1245,-0.886,0.886,-0.1245,-397.7406,658.8172)"
   gradientUnits="userSpaceOnUse">
		<stop
   offset="0"
   style="stop-color:#FFFFFF"
   id="stop336" />
		<stop
   offset="0.2023"
   style="stop-color:#FFFFFF"
   id="stop338" />
		<stop
   offset="0.4256"
   style="stop-color:#FFFFFF"
   id="stop340" />
	</radialGradient>
	<path
   style="fill:url(#SVGID_00000132089150794778828020000012345715230768394648_)"
   d="m 334.43,244.09 c 2.05,-0.29 0.85,2.3 1.29,5.48 0.45,3.19 2.38,5.77 0.33,6.05 -2.05,0.29 -4.07,-2.06 -4.52,-5.25 -0.45,-3.18 0.85,-5.99 2.9,-6.28 z"
   id="path343" />
</g>
<g
   id="g433"
   transform="translate(-271.64,-154.83)">
	
		<radialGradient
   id="SVGID_00000063612933491916641860000006817544171900438671_"
   cx="325.4476"
   cy="864.58752"
   r="27.5471"
   gradientTransform="matrix(-0.1392,-0.9903,0.9903,-0.1392,-461.7927,706.0108)"
   gradientUnits="userSpaceOnUse">
		<stop
   offset="0"
   style="stop-color:#FFFFFF"
   id="stop347" />
		<stop
   offset="0.1319"
   style="stop-color:#F5D0E4"
   id="stop349" />
		<stop
   offset="0.3203"
   style="stop-color:#EC91BC"
   id="stop351" />
		<stop
   offset="0.3257"
   style="stop-color:#EC8EBA"
   id="stop353" />
		<stop
   offset="0.4042"
   style="stop-color:#E766A5"
   id="stop355" />
		<stop
   offset="0.476"
   style="stop-color:#E34996"
   id="stop357" />
		<stop
   offset="0.538"
   style="stop-color:#E1378C"
   id="stop359" />
		<stop
   offset="0.5832"
   style="stop-color:#E03189"
   id="stop361" />
		<stop
   offset="0.6097"
   style="stop-color:#E34795"
   id="stop363" />
		<stop
   offset="0.6601"
   style="stop-color:#E76AA8"
   id="stop365" />
		<stop
   offset="0.7112"
   style="stop-color:#EB85B7"
   id="stop367" />
		<stop
   offset="0.7628"
   style="stop-color:#ED98C2"
   id="stop369" />
		<stop
   offset="0.8149"
   style="stop-color:#EFA4C8"
   id="stop371" />
		<stop
   offset="0.8687"
   style="stop-color:#EFA8CA"
   id="stop373" />
		<stop
   offset="1"
   style="stop-color:#FFFFFF"
   id="stop375" />
	</radialGradient>
	<path
   style="fill:url(#SVGID_00000063612933491916641860000006817544171900438671_)"
   d="m 350.31,251 c 7.31,-1.03 14.06,4.06 15.09,11.37 1.03,7.31 -4.06,14.07 -11.37,15.09 -7.31,1.03 -14.07,-4.06 -15.1,-11.37 -1.03,-7.31 4.07,-14.07 11.38,-15.09 z"
   id="path378" />
	<defs
   id="defs385">
		
			<filter
   id="Adobe_OpacityMaskFilter_00000143619581619662884100000018155589792275602851_"
   filterUnits="userSpaceOnUse"
   x="340.53"
   y="256.89999"
   width="7.8099999"
   height="16.34">
			<feFlood
   result="back"
   id="feFlood380" />
			<feBlend
   in="SourceGraphic"
   in2="back"
   mode="normal"
   id="feBlend382" />
		</filter>
	</defs>
	
		<mask
   maskUnits="userSpaceOnUse"
   x="340.53"
   y="256.9"
   width="7.81"
   height="16.34"
   id="mask422">
		<g
   style="filter:url(#Adobe_OpacityMaskFilter_00000143619581619662884100000018155589792275602851_)"
   id="g420">
			<defs
   id="defs392">
				
					<filter
   id="Adobe_OpacityMaskFilter_00000039111218770901699740000012884512901596698500_"
   filterUnits="userSpaceOnUse"
   x="340.53"
   y="256.89999"
   width="7.8099999"
   height="16.34">
					<feFlood
   result="back"
   id="feFlood387" />
					<feBlend
   in="SourceGraphic"
   in2="back"
   mode="normal"
   id="feBlend389" />
				</filter>
			</defs>
			
				<mask
   maskUnits="userSpaceOnUse"
   x="340.53"
   y="256.9"
   width="7.81"
   height="16.34"
   id="SVGID_00000113336890601723983030000013866473510371578007_">
				<g
   style="filter:url(#Adobe_OpacityMaskFilter_00000039111218770901699740000012884512901596698500_)"
   id="g394">
				</g>
			</mask>
			
				<radialGradient
   id="SVGID_00000031190745313620322470000016878643294203853200_"
   cx="325.29349"
   cy="846.9585"
   r="38.932899"
   gradientTransform="matrix(-0.1392,-0.9903,0.9903,-0.1392,-461.7927,706.0108)"
   gradientUnits="userSpaceOnUse">
				<stop
   offset="0"
   style="stop-color:#F2F2F2"
   id="stop397" />
				<stop
   offset="0.0431"
   style="stop-color:#EEEEEE"
   id="stop399" />
				<stop
   offset="0.0919"
   style="stop-color:#E0E0E0"
   id="stop401" />
				<stop
   offset="0.1436"
   style="stop-color:#C9C9C9"
   id="stop403" />
				<stop
   offset="0.1968"
   style="stop-color:#AAAAAA"
   id="stop405" />
				<stop
   offset="0.2023"
   style="stop-color:#A6A6A6"
   id="stop407" />
				<stop
   offset="0.2574"
   style="stop-color:#767676"
   id="stop409" />
				<stop
   offset="0.3371"
   style="stop-color:#373737"
   id="stop411" />
				<stop
   offset="0.3953"
   style="stop-color:#0F0F0F"
   id="stop413" />
				<stop
   offset="0.4256"
   style="stop-color:#000000"
   id="stop415" />
			</radialGradient>
			
				<path
   style="fill:url(#SVGID_00000031190745313620322470000016878643294203853200_)"
   d="m 344.74,256.93 c 2.89,-0.41 1.19,3.24 1.82,7.73 0.63,4.49 3.35,8.13 0.46,8.54 -2.89,0.41 -5.75,-2.91 -6.38,-7.4 -0.62,-4.49 1.21,-8.46 4.1,-8.87 z"
   mask="url(#SVGID_00000113336890601723983030000013866473510371578007_)"
   id="path418" />
		</g>
	</mask>
	
		<radialGradient
   id="SVGID_00000029043884654493658540000014313005456662083480_"
   cx="325.29349"
   cy="846.9585"
   r="38.932899"
   gradientTransform="matrix(-0.1392,-0.9903,0.9903,-0.1392,-461.7927,706.0108)"
   gradientUnits="userSpaceOnUse">
		<stop
   offset="0"
   style="stop-color:#FFFFFF"
   id="stop424" />
		<stop
   offset="0.2023"
   style="stop-color:#FFFFFF"
   id="stop426" />
		<stop
   offset="0.4256"
   style="stop-color:#FFFFFF"
   id="stop428" />
	</radialGradient>
	<path
   style="fill:url(#SVGID_00000029043884654493658540000014313005456662083480_)"
   d="m 344.74,256.93 c 2.89,-0.41 1.19,3.24 1.82,7.73 0.63,4.49 3.35,8.13 0.46,8.54 -2.89,0.41 -5.75,-2.91 -6.38,-7.4 -0.62,-4.49 1.21,-8.46 4.1,-8.87 z"
   id="path431" />
</g>
<g
   id="g521"
   transform="translate(-271.64,-154.83)">
	
		<radialGradient
   id="SVGID_00000113344456170050598700000017412394117068205483_"
   cx="310.86481"
   cy="846.99799"
   r="29.8643"
   gradientTransform="matrix(-0.1392,-0.9903,0.9903,-0.1392,-461.7927,706.0108)"
   gradientUnits="userSpaceOnUse">
		<stop
   offset="0"
   style="stop-color:#FFFFFF"
   id="stop435" />
		<stop
   offset="0.1319"
   style="stop-color:#F5D0E4"
   id="stop437" />
		<stop
   offset="0.3203"
   style="stop-color:#EC91BC"
   id="stop439" />
		<stop
   offset="0.3257"
   style="stop-color:#EC8EBA"
   id="stop441" />
		<stop
   offset="0.4042"
   style="stop-color:#E766A5"
   id="stop443" />
		<stop
   offset="0.476"
   style="stop-color:#E34996"
   id="stop445" />
		<stop
   offset="0.538"
   style="stop-color:#E1378C"
   id="stop447" />
		<stop
   offset="0.5832"
   style="stop-color:#E03189"
   id="stop449" />
		<stop
   offset="0.6097"
   style="stop-color:#E34795"
   id="stop451" />
		<stop
   offset="0.6601"
   style="stop-color:#E76AA8"
   id="stop453" />
		<stop
   offset="0.7112"
   style="stop-color:#EB85B7"
   id="stop455" />
		<stop
   offset="0.7628"
   style="stop-color:#ED98C2"
   id="stop457" />
		<stop
   offset="0.8149"
   style="stop-color:#EFA4C8"
   id="stop459" />
		<stop
   offset="0.8687"
   style="stop-color:#EFA8CA"
   id="stop461" />
		<stop
   offset="1"
   style="stop-color:#FFFFFF"
   id="stop463" />
	</radialGradient>
	<path
   style="fill:url(#SVGID_00000113344456170050598700000017412394117068205483_)"
   d="m 335.02,266.84 c 7.92,-1.11 15.24,4.4 16.36,12.33 1.11,7.92 -4.41,15.25 -12.33,16.36 -7.92,1.11 -15.25,-4.41 -16.37,-12.33 -1.11,-7.92 4.42,-15.25 12.34,-16.36 z"
   id="path466" />
	<defs
   id="defs473">
		
			<filter
   id="Adobe_OpacityMaskFilter_00000042002270884147169090000004906497326075330732_"
   filterUnits="userSpaceOnUse"
   x="324.42001"
   y="273.23999"
   width="8.4700003"
   height="17.709999">
			<feFlood
   result="back"
   id="feFlood468" />
			<feBlend
   in="SourceGraphic"
   in2="back"
   mode="normal"
   id="feBlend470" />
		</filter>
	</defs>
	
		<mask
   maskUnits="userSpaceOnUse"
   x="324.42"
   y="273.24"
   width="8.47"
   height="17.71"
   id="mask510">
		<g
   style="filter:url(#Adobe_OpacityMaskFilter_00000042002270884147169090000004906497326075330732_)"
   id="g508">
			<defs
   id="defs480">
				
					<filter
   id="Adobe_OpacityMaskFilter_00000137818922994589813070000002084615795013839754_"
   filterUnits="userSpaceOnUse"
   x="324.42001"
   y="273.23999"
   width="8.4700003"
   height="17.709999">
					<feFlood
   result="back"
   id="feFlood475" />
					<feBlend
   in="SourceGraphic"
   in2="back"
   mode="normal"
   id="feBlend477" />
				</filter>
			</defs>
			
				<mask
   maskUnits="userSpaceOnUse"
   x="324.42"
   y="273.24"
   width="8.47"
   height="17.71"
   id="SVGID_00000154412040026852748630000006516768358052000688_">
				<g
   style="filter:url(#Adobe_OpacityMaskFilter_00000137818922994589813070000002084615795013839754_)"
   id="g482">
				</g>
			</mask>
			
				<radialGradient
   id="SVGID_00000054234099029443227480000014294362909689503899_"
   cx="310.69769"
   cy="827.88599"
   r="42.207901"
   gradientTransform="matrix(-0.1392,-0.9903,0.9903,-0.1392,-461.7927,706.0108)"
   gradientUnits="userSpaceOnUse">
				<stop
   offset="0"
   style="stop-color:#F2F2F2"
   id="stop485" />
				<stop
   offset="0.0431"
   style="stop-color:#EEEEEE"
   id="stop487" />
				<stop
   offset="0.0919"
   style="stop-color:#E0E0E0"
   id="stop489" />
				<stop
   offset="0.1436"
   style="stop-color:#C9C9C9"
   id="stop491" />
				<stop
   offset="0.1968"
   style="stop-color:#AAAAAA"
   id="stop493" />
				<stop
   offset="0.2023"
   style="stop-color:#A6A6A6"
   id="stop495" />
				<stop
   offset="0.2574"
   style="stop-color:#767676"
   id="stop497" />
				<stop
   offset="0.3371"
   style="stop-color:#373737"
   id="stop499" />
				<stop
   offset="0.3953"
   style="stop-color:#0F0F0F"
   id="stop501" />
				<stop
   offset="0.4256"
   style="stop-color:#000000"
   id="stop503" />
			</radialGradient>
			
				<path
   style="fill:url(#SVGID_00000054234099029443227480000014294362909689503899_)"
   d="m 328.99,273.27 c 3.13,-0.44 1.29,3.51 1.98,8.38 0.68,4.87 3.64,8.82 0.5,9.26 -3.14,0.44 -6.23,-3.15 -6.92,-8.02 -0.68,-4.87 1.3,-9.18 4.44,-9.62 z"
   mask="url(#SVGID_00000154412040026852748630000006516768358052000688_)"
   id="path506" />
		</g>
	</mask>
	
		<radialGradient
   id="SVGID_00000064346420512255483980000003951993757275437198_"
   cx="310.69769"
   cy="827.88599"
   r="42.207901"
   gradientTransform="matrix(-0.1392,-0.9903,0.9903,-0.1392,-461.7927,706.0108)"
   gradientUnits="userSpaceOnUse">
		<stop
   offset="0"
   style="stop-color:#FFFFFF"
   id="stop512" />
		<stop
   offset="0.2023"
   style="stop-color:#FFFFFF"
   id="stop514" />
		<stop
   offset="0.4256"
   style="stop-color:#FFFFFF"
   id="stop516" />
	</radialGradient>
	<path
   style="fill:url(#SVGID_00000064346420512255483980000003951993757275437198_)"
   d="m 328.99,273.27 c 3.13,-0.44 1.29,3.51 1.98,8.38 0.68,4.87 3.64,8.82 0.5,9.26 -3.14,0.44 -6.23,-3.15 -6.92,-8.02 -0.68,-4.87 1.3,-9.18 4.44,-9.62 z"
   id="path519" />
</g>
<radialGradient
   id="SVGID_00000052797498344178636600000012753714898025227697_"
   cx="380.41089"
   cy="855.19592"
   r="122.8543"
   gradientTransform="matrix(-0.1392,-0.9903,0.9903,-0.1392,-733.4327,551.1808)"
   gradientUnits="userSpaceOnUse">
	<stop
   offset="0"
   style="stop-color:#E9EDF1"
   id="stop523" />
	<stop
   offset="0.1406"
   style="stop-color:#CEDEE6"
   id="stop525" />
	<stop
   offset="0.4412"
   style="stop-color:#89B8CB"
   id="stop527" />
	<stop
   offset="0.5531"
   style="stop-color:#6EA9C0"
   id="stop529" />
	<stop
   offset="0.6623"
   style="stop-color:#65A1B7"
   id="stop531" />
	<stop
   offset="0.8412"
   style="stop-color:#4C8B9F"
   id="stop533" />
	<stop
   offset="1"
   style="stop-color:#317285"
   id="stop535" />
</radialGradient>
<path
   style="fill:url(#SVGID_00000052797498344178636600000012753714898025227697_)"
   d="m 52.79,150.2 c 3.88,-0.55 7.43,-1.04 11.07,-4.77 -1.4,-1.16 -2.66,-2.48 -3.76,-3.94 -0.01,-0.01 -0.01,-0.01 -0.02,-0.02 -5.34,-6.09 -13.92,-33.92 -19.39,-41.63 -6.05,-8.53 -18.639997,-8.48 -25.319997,-2.73 -3.34,2.87 -5.09,6.25 -5.99,9.79 -0.56,3.26 -0.82,6.61 -0.76,10.01 0.08,1.77 0.21,3.51 0.34,5.18 0.02,0.21 0.05,0.43 0.07,0.64 6.41,19.65 24.529997,30.17 43.759997,27.47 z"
   id="path538" />
<radialGradient
   id="SVGID_00000178926918920607414660000007288715266525508500_"
   cx="379.55859"
   cy="855.19373"
   r="109.0696"
   gradientTransform="matrix(-0.1392,-0.9903,0.9903,-0.1392,-733.4327,551.1808)"
   gradientUnits="userSpaceOnUse">
	<stop
   offset="0"
   style="stop-color:#E9EDF1"
   id="stop540" />
	<stop
   offset="0.1406"
   style="stop-color:#CEDEE6"
   id="stop542" />
	<stop
   offset="0.4412"
   style="stop-color:#89B8CB"
   id="stop544" />
	<stop
   offset="0.5531"
   style="stop-color:#6EA9C0"
   id="stop546" />
	<stop
   offset="0.6623"
   style="stop-color:#65A1B7"
   id="stop548" />
	<stop
   offset="0.8412"
   style="stop-color:#4C8B9F"
   id="stop550" />
	<stop
   offset="1"
   style="stop-color:#317285"
   id="stop552" />
</radialGradient>
<path
   style="fill:url(#SVGID_00000178926918920607414660000007288715266525508500_)"
   d="m 52.53,63.009995 c -0.29,0.05 -0.57,0.12 -0.86,0.18 -0.56,0.12 -1.12,0.23 -1.67,0.36 -0.34,0.08 -0.68,0.17 -1.01,0.26 -0.49,0.13 -0.98,0.26 -1.47,0.4 -0.36,0.11 -0.71,0.22 -1.06,0.33 -0.46,0.14 -0.91,0.28 -1.36,0.44 -0.36,0.12 -0.73,0.25 -1.08,0.39 -0.43,0.15 -0.86,0.32 -1.28,0.48 -0.36,0.14 -0.72,0.29 -1.08,0.44 -0.41,0.17 -0.82,0.35 -1.23,0.54 -0.36,0.16 -0.71,0.32 -1.06,0.49 -0.41,0.19 -0.8,0.39 -1.2,0.6 -0.34,0.17 -0.68,0.35 -1.02,0.53 -0.08,0.05 -0.17,0.1 -0.25,0.14 1.51,-0.4 3.05,-0.71 4.64,-0.93 12.88,-1.81 25.2,2.600005 33.93,10.950005 17.26,6.98 30.47,26.36 26.99,50.17 -0.13,2.39 -0.63,4.7 -1.44,6.88 v 0 c -0.05,0.19 -0.15,0.39 -0.26,0.58 -3.05,7.52 -9.89,13.27 -18.51,14.48 -6.87,0.97 -13.45,-1.15 -18.37,-5.28 -3.42,1.52 -7.09,2.61 -10.97,3.16 -19.24,2.7 -37.209997,-8.46 -43.849997,-25.86 0.04,0.29 0.06,0.57 0.1,0.86 4.15,29.54 31.459997,50.13 60.999997,45.97 29.54,-4.15 50.12,-31.46 45.97,-61.01 -4.15,-29.54 -31.46,-50.120005 -61,-45.970005 -0.89,0.11 -1.75,0.26 -2.6,0.42 z"
   id="path555" />
</svg>
