<?xml version="1.0" encoding="UTF-8" standalone="no"?>
<svg
   xmlns:dc="http://purl.org/dc/elements/1.1/"
   xmlns:cc="http://creativecommons.org/ns#"
   xmlns:rdf="http://www.w3.org/1999/02/22-rdf-syntax-ns#"
   xmlns:svg="http://www.w3.org/2000/svg"
   xmlns="http://www.w3.org/2000/svg"
   xmlns:sodipodi="http://sodipodi.sourceforge.net/DTD/sodipodi-0.dtd"
   xmlns:inkscape="http://www.inkscape.org/namespaces/inkscape"
   inkscape:version="1.0 (4035a4fb49, 2020-05-01)"
   height="176.42999"
   width="158.60001"
   sodipodi:docname="RLI_Logo_Vertikal__Zweifarbig_RGB.svg"
   id="svg62"
   version="1.1"
   viewBox="0 0 158.6 176.42999">
  <metadata
     id="metadata66">
    <rdf:RDF>
      <cc:Work
         rdf:about="">
        <dc:format>image/svg+xml</dc:format>
        <dc:type
           rdf:resource="http://purl.org/dc/dcmitype/StillImage" />
        <dc:title></dc:title>
      </cc:Work>
    </rdf:RDF>
  </metadata>
  <sodipodi:namedview
     inkscape:current-layer="svg62"
     inkscape:window-maximized="1"
     inkscape:window-y="-11"
     inkscape:window-x="-11"
     inkscape:cy="103.01088"
     inkscape:cx="73.119667"
     inkscape:zoom="4.1382163"
     fit-margin-right="30"
     fit-margin-left="0"
     fit-margin-bottom="40"
     fit-margin-top="40"
     showgrid="false"
     id="namedview64"
     inkscape:window-height="1526"
     inkscape:window-width="2880"
     inkscape:pageshadow="2"
     inkscape:pageopacity="0"
     guidetolerance="10"
     gridtolerance="10"
     objecttolerance="10"
     borderopacity="1"
     bordercolor="#666666"
     pagecolor="#ffffff" />
  <defs
     id="defs4">
    <style
       id="style2">
      .cls-1 {
        fill: #a6a6a6;
      }

      .cls-2 {
        fill: #002e50;
      }
    </style>
  </defs>
  <g
     transform="translate(0,40)"
     id="Signet">
    <g
       id="g14">
      <path
         id="path6"
         d="M 117,0.5 H 104.9 V 12.8 H 117 Z"
         class="cls-1" />
      <path
         id="path8"
         d="M 48.3,57.4 V 43.9 l -23.7,-9 h 7.8 c 4.9,0 8.7,-1.8 11.6,-5.5 2.6,-3.3 3.8,-7.2 3.8,-12 C 47.8,12.6 46.6,8.8 44,5.5 41.1,1.9 37.3,0.1 32.4,0.1 H 0 v 12.1 h 30.3 c 1.4,0 2.6,0.6 3.3,1.6 0.8,1 1.1,2.2 1.1,3.5 0,3.4 -1.4,5.1 -4.5,5.1 H 14.9 C 10.1,22.4 6.4,23.8 3.7,26.8 1.2,29.7 0,33.5 0,38.3 v 19 H 12.4 V 43.2 Z"
         class="cls-2" />
      <path
         id="path10"
         d="M 83.7,57.4 V 45 h 7 c 3.1,0 5.5,-0.4 7.5,-1.2 2.8,-1.1 4.7,-3.2 5.6,-6.4 0.7,-2 1,-5.1 1,-9 v -7.3 h 12.6 v 8.8 c 0,9.1 -1.9,15.8 -5.7,20.3 -4.1,4.8 -10.6,7.2 -19.5,7.2 z"
         class="cls-1" />
      <path
         id="path12"
         d="M 83.7,57.4 V 45 H 77.1 C 74,45 71.6,44.6 69.6,43.8 66.8,42.7 64.9,40.6 64,37.4 c -0.7,-2 -1,-5.1 -1,-9 V 0 H 50.4 v 29.8 c 0,9.1 1.9,15.9 5.7,20.4 4.1,4.8 10.6,7.2 19.5,7.2 z"
         class="cls-2" />
    </g>
  </g>
  <g
     transform="translate(0,40)"
     data-name="Ebene 3"
     id="Ebene_3">
    <g
       id="g59">
      <path
         id="path17"
         d="M 0,76.77 V 65.43 h 4.58 c 1.22,0 2.16,0.29 2.82,0.86 0.66,0.57 0.99,1.39 0.99,2.44 0,0.69 -0.15,1.27 -0.45,1.76 -0.3,0.49 -0.73,0.86 -1.3,1.12 C 6.07,71.87 5.39,72 4.58,72 l 0.16,-0.23 h 0.35 c 0.43,0 0.8,0.11 1.12,0.32 0.32,0.21 0.6,0.56 0.84,1.03 l 1.99,3.65 H 7.38 L 5.42,73.15 C 5.27,72.85 5.1,72.62 4.91,72.46 4.72,72.3 4.51,72.19 4.27,72.13 4.03,72.07 3.74,72.04 3.41,72.04 H 1.48 v 4.73 z m 1.5,-5.88 h 2.85 c 0.86,0 1.5,-0.18 1.93,-0.54 0.43,-0.36 0.64,-0.89 0.64,-1.58 0,-0.69 -0.21,-1.22 -0.64,-1.58 C 5.85,66.84 5.21,66.66 4.35,66.66 H 1.5 Z"
         class="cls-2" />
      <path
         id="path19"
         d="M 10.82,76.77 V 65.43 h 7.24 v 1.22 h -5.79 v 3.75 h 5.45 v 1.22 h -5.45 v 3.92 h 5.79 v 1.22 h -7.24 z"
         class="cls-2" />
      <path
         id="path21"
         d="M 20.25,76.77 V 65.43 h 1.5 v 11.34 z"
         class="cls-2" />
      <path
         id="path23"
         d="M 24.46,76.77 V 65.43 h 1.14 l 7.06,9.36 h -0.4 v -9.36 h 1.4 V 76.77 H 32.53 L 25.47,67.4 h 0.37 v 9.37 z"
         class="cls-2" />
      <path
         id="path25"
         d="M 36.37,76.77 V 65.43 h 7.24 v 1.22 h -5.79 v 3.75 h 5.45 v 1.22 h -5.45 v 3.92 h 5.79 v 1.22 h -7.24 z"
         class="cls-2" />
      <path
         id="path27"
         d="M 45.8,76.77 V 65.43 h 4.58 c 1.22,0 2.16,0.29 2.82,0.86 0.66,0.57 0.99,1.39 0.99,2.44 0,0.69 -0.15,1.27 -0.45,1.76 -0.3,0.49 -0.73,0.86 -1.3,1.12 C 51.87,71.87 51.19,72 50.38,72 l 0.16,-0.23 h 0.35 c 0.43,0 0.8,0.11 1.12,0.32 0.32,0.21 0.6,0.56 0.84,1.03 l 1.99,3.65 h -1.66 l -1.96,-3.62 c -0.15,-0.3 -0.32,-0.53 -0.51,-0.69 -0.19,-0.16 -0.4,-0.27 -0.64,-0.33 -0.24,-0.06 -0.53,-0.09 -0.86,-0.09 h -1.93 v 4.73 h -1.5 z m 1.49,-5.88 h 2.85 c 0.86,0 1.5,-0.18 1.93,-0.54 0.43,-0.36 0.64,-0.89 0.64,-1.58 0,-0.69 -0.21,-1.22 -0.64,-1.58 C 51.64,66.84 51,66.66 50.14,66.66 h -2.85 z"
         class="cls-2" />
      <path
         id="path29"
         d="M 60.8,76.77 V 65.43 h 1.5 v 10.05 h 5.68 v 1.29 h -7.17 z"
         class="cls-2" />
      <path
         id="path31"
         d="M 69.61,76.77 V 65.43 h 7.24 v 1.22 h -5.79 v 3.75 h 5.45 v 1.22 h -5.45 v 3.92 h 5.79 v 1.22 h -7.24 z"
         class="cls-2" />
      <path
         id="path33"
         d="M 79.07,76.77 V 65.43 h 1.25 l 4.52,8.47 h -0.5 l 4.5,-8.47 h 1.24 v 11.34 h -1.35 v -9.26 h 0.35 l -4.04,7.53 H 84.11 L 80.03,67.5 h 0.39 v 9.28 h -1.35 z"
         class="cls-2" />
      <path
         id="path35"
         d="m 97.67,76.92 c -0.8,0 -1.53,-0.13 -2.17,-0.4 -0.64,-0.27 -1.2,-0.66 -1.66,-1.17 -0.46,-0.51 -0.81,-1.13 -1.06,-1.84 -0.25,-0.71 -0.37,-1.51 -0.37,-2.4 0,-0.89 0.12,-1.69 0.37,-2.4 0.25,-0.71 0.6,-1.32 1.05,-1.83 0.46,-0.51 1.01,-0.9 1.66,-1.17 0.65,-0.27 1.38,-0.4 2.18,-0.4 0.8,0 1.53,0.13 2.17,0.4 0.64,0.27 1.2,0.65 1.66,1.16 0.46,0.51 0.81,1.11 1.05,1.83 0.24,0.71 0.36,1.51 0.36,2.4 0,0.89 -0.12,1.69 -0.37,2.41 -0.25,0.72 -0.6,1.33 -1.05,1.85 -0.45,0.52 -1,0.91 -1.65,1.17 -0.64,0.27 -1.37,0.4 -2.17,0.4 z m 0,-1.32 c 0.77,0 1.43,-0.18 1.98,-0.53 0.55,-0.35 0.97,-0.87 1.26,-1.54 0.29,-0.67 0.44,-1.48 0.44,-2.43 0,-0.95 -0.14,-1.77 -0.43,-2.44 -0.29,-0.67 -0.71,-1.18 -1.25,-1.53 -0.55,-0.35 -1.21,-0.52 -1.99,-0.52 -0.78,0 -1.43,0.17 -1.99,0.52 -0.55,0.35 -0.97,0.86 -1.26,1.53 -0.29,0.67 -0.43,1.48 -0.43,2.44 0,0.96 0.15,1.75 0.43,2.43 0.29,0.68 0.71,1.19 1.26,1.54 0.55,0.35 1.21,0.53 1.99,0.53 z"
         class="cls-2" />
      <path
         id="path37"
         d="M 105.23,76.77 V 65.43 h 1.5 v 11.34 z"
         class="cls-2" />
      <path
         id="path39"
         d="M 109.44,76.77 V 65.43 h 1.14 l 7.06,9.36 h -0.4 v -9.36 h 1.4 v 11.34 h -1.13 l -7.06,-9.37 h 0.37 v 9.37 z"
         class="cls-2" />
      <path
         id="path41"
         d="M 121.36,76.77 V 65.43 h 7.24 v 1.22 h -5.79 v 3.75 h 5.45 v 1.22 h -5.45 v 3.92 h 5.79 v 1.22 h -7.24 z"
         class="cls-2" />
      <path
         id="path43"
         d="M 0,96.27 V 84.93 h 1.5 v 11.34 z"
         class="cls-1" />
      <path
         id="path45"
         d="M 4.21,96.27 V 84.93 h 1.14 l 7.06,9.36 h -0.4 v -9.36 h 1.4 V 96.27 H 12.28 L 5.22,86.9 h 0.37 v 9.37 z"
         class="cls-1" />
      <path
         id="path47"
         d="m 19.84,96.42 c -0.59,0 -1.15,-0.05 -1.67,-0.15 -0.53,-0.1 -1.01,-0.25 -1.45,-0.45 -0.44,-0.2 -0.84,-0.44 -1.19,-0.73 l 0.51,-1.19 c 0.35,0.27 0.72,0.5 1.11,0.68 0.39,0.19 0.8,0.33 1.24,0.42 0.44,0.09 0.92,0.14 1.45,0.14 0.94,0 1.64,-0.17 2.08,-0.51 0.44,-0.34 0.67,-0.79 0.67,-1.35 0,-0.31 -0.07,-0.57 -0.21,-0.79 -0.14,-0.21 -0.36,-0.4 -0.68,-0.55 -0.31,-0.15 -0.72,-0.27 -1.22,-0.37 l -1.7,-0.35 c -1.01,-0.21 -1.76,-0.57 -2.26,-1.06 -0.5,-0.49 -0.75,-1.15 -0.75,-1.98 0,-0.67 0.18,-1.27 0.54,-1.78 0.36,-0.51 0.85,-0.9 1.48,-1.18 0.63,-0.28 1.35,-0.42 2.18,-0.42 0.51,0 1,0.05 1.46,0.15 0.46,0.1 0.89,0.26 1.29,0.47 0.4,0.21 0.75,0.46 1.05,0.76 l -0.5,1.14 c -0.47,-0.43 -0.98,-0.74 -1.51,-0.94 -0.54,-0.2 -1.14,-0.3 -1.8,-0.3 -0.55,0 -1.02,0.09 -1.42,0.26 -0.4,0.17 -0.71,0.41 -0.93,0.72 -0.22,0.31 -0.33,0.66 -0.33,1.07 0,0.49 0.15,0.88 0.45,1.16 0.3,0.28 0.8,0.49 1.51,0.64 l 1.69,0.34 c 1.07,0.23 1.87,0.57 2.39,1.04 0.52,0.47 0.78,1.09 0.78,1.87 0,0.64 -0.17,1.21 -0.51,1.7 -0.34,0.49 -0.83,0.87 -1.47,1.14 -0.64,0.27 -1.39,0.41 -2.26,0.41 z"
         class="cls-1" />
      <path
         id="path49"
         d="M 28.83,96.27 V 86.2 h -4.07 v -1.27 h 9.63 v 1.27 h -4.07 v 10.07 h -1.5 z"
         class="cls-1" />
      <path
         id="path51"
         d="M 35.83,96.27 V 84.93 h 1.5 v 11.34 z"
         class="cls-1" />
      <path
         id="path53"
         d="M 42.81,96.27 V 86.2 h -4.07 v -1.27 h 9.63 V 86.2 H 44.3 v 10.07 h -1.5 z"
         class="cls-1" />
      <path
         id="path55"
         d="m 54.32,96.42 c -1.5,0 -2.64,-0.4 -3.42,-1.19 -0.78,-0.79 -1.17,-1.96 -1.17,-3.49 v -6.8 h 1.5 v 6.75 c 0,1.15 0.26,2 0.79,2.57 0.52,0.56 1.3,0.84 2.32,0.84 1.02,0 1.79,-0.28 2.32,-0.84 0.53,-0.56 0.79,-1.42 0.79,-2.57 v -6.75 h 1.48 v 6.8 c 0,1.53 -0.39,2.7 -1.17,3.49 -0.78,0.79 -1.92,1.19 -3.42,1.19 z"
         class="cls-1" />
      <path
         id="path57"
         d="M 64.32,96.27 V 86.2 h -4.07 v -1.27 h 9.63 v 1.27 h -4.07 v 10.07 h -1.5 z"
         class="cls-1" />
    </g>
  </g>
</svg>
