<?xml version="1.0" encoding="UTF-8" standalone="no"?>
<svg
   xmlns:dc="http://purl.org/dc/elements/1.1/"
   xmlns:cc="http://creativecommons.org/ns#"
   xmlns:rdf="http://www.w3.org/1999/02/22-rdf-syntax-ns#"
   xmlns:svg="http://www.w3.org/2000/svg"
   xmlns="http://www.w3.org/2000/svg"
   xmlns:sodipodi="http://sodipodi.sourceforge.net/DTD/sodipodi-0.dtd"
   xmlns:inkscape="http://www.inkscape.org/namespaces/inkscape"
   version="1.1"
   id="svg1026"
   width="124.99157mm"
   height="71.239906mm"
   viewBox="0 0 472.40909 269.2532"
   sodipodi:docname="Logo_UOS.svg"
   inkscape:version="1.0 (4035a4fb49, 2020-05-01)">
  <metadata
     id="metadata7">
    <rdf:RDF>
      <cc:Work
         rdf:about="">
        <dc:format>image/svg+xml</dc:format>
        <dc:type
           rdf:resource="http://purl.org/dc/dcmitype/StillImage" />
        <dc:title></dc:title>
      </cc:Work>
    </rdf:RDF>
  </metadata>
  <defs
     id="defs1030" />
  <sodipodi:namedview
     fit-margin-bottom="20"
     fit-margin-right="30"
     fit-margin-left="0"
     fit-margin-top="20"
     id="namedview1028"
     pagecolor="#ffffff"
     bordercolor="#000000"
     borderopacity="0.25"
     inkscape:showpageshadow="2"
     inkscape:pageopacity="0.0"
     inkscape:pagecheckerboard="0"
     inkscape:deskcolor="#d1d1d1"
     showgrid="false"
     inkscape:zoom="2.0000001"
     inkscape:cx="261.61067"
     inkscape:cy="95.145294"
     inkscape:window-width="2880"
     inkscape:window-height="1526"
     inkscape:window-x="-11"
     inkscape:window-y="-11"
     inkscape:window-maximized="1"
     inkscape:current-layer="g1032"
     inkscape:document-units="mm"
     inkscape:document-rotation="0" />
  <g
     inkscape:groupmode="layer"
     inkscape:label="Image"
     id="g1032"
     transform="translate(-158.43668,-65.692144)">
    <g
       id="g50"
       transform="matrix(0.15595885,0,0,0.15595885,158.44119,141.28533)">
      <path
         id="path2"
         d="m 285.626,74.829 c -8.939,0 -16.164,-7.177 -16.164,-16.009 0,-8.829 7.225,-16.004 16.164,-16.004 8.918,0 16.143,7.175 16.143,16.004 10e-4,8.832 -7.224,16.009 -16.143,16.009 z"
         stroke-width="9.417"
         stroke="#a71f3c"
         fill="none" />
      <path
         id="path4"
         d="M 193.911,502.795 V 281.186 L 7.261,378.806 V 603.447 L 285.005,748.866 562.734,603.447 V 378.806 l -186.7,-97.62 V 502.794 L 285.005,551.07 Z M 7.226,62.935 V 349.392 L 193.962,251.173 V 66.861 m 181.226,-0.02 H 563.476 L 452.738,7.238 H 115.831 L 5.443,66.841 h 188.288 m 369.04,-3.906 V 349.392 L 376.036,251.723 V 66.861 m -182.073,0.742 v 183.395 l 46.157,-23.971 v -85.356 c 0,-24.521 20.105,-44.41 44.886,-44.41 24.767,0 44.872,19.89 44.872,44.41 l -0.141,85.888 46.298,24.25 0.071,-184.052 -91.101,-47.585 z"
         stroke-width="14.5098"
         stroke="#a71f3c"
         fill="none" />
      <path
         id="path6"
         d="m 599.99,61.524 c 22.453,2.737 40.524,-5.475 60.785,2.737 -7.121,7.121 -24.642,4.928 -21.356,20.811 l 1.096,164.828 c 3.285,13.146 12.594,25.739 25.188,32.858 21.908,8.764 48.191,11.502 69.002,-2.188 16.975,-10.957 25.191,-27.932 24.642,-47.094 V 76.855 c 0.55,-14.781 -27.927,-1.642 -15.879,-16.429 16.429,1.097 34.495,-2.188 49.282,2.739 -3.83,8.217 -21.901,2.739 -20.811,16.975 l -1.642,162.095 c -3.285,17.525 -9.855,36.143 -27.927,45.452 -30.666,16.975 -77.214,17.525 -105.141,-4.929 -15.883,-13.144 -19.714,-31.215 -21.355,-50.379 V 77.953 C 616.419,63.717 589.04,74.668 599.99,61.524 Z" />
      <path
         id="path8"
         d="m 803.7,60.427 c 10.955,-2.188 23.549,-0.546 35.051,-1.092 45.447,59.688 84.876,121.569 129.782,181.808 l 2.193,-3.836 V 73.026 c -2.193,-12.048 -21.362,-1.644 -18.623,-13.691 16.43,-1.642 35.598,-2.739 50.93,1.092 -2.738,8.763 -20.265,2.193 -18.617,16.429 l -2.739,217.405 c -16.429,10.401 -9.309,-14.24 -18.071,-19.713 -41.07,-57.5 -79.953,-116.642 -122.666,-171.953 -3.835,58.597 -3.835,120.478 0,180.165 3.831,9.31 16.976,2.189 17.525,11.502 -16.429,1.644 -34.5,1.644 -50.93,0 1.643,-8.763 18.617,-2.737 19.714,-14.785 V 81.789 C 821.771,73.026 813.013,67.002 803.7,64.263 Z" />
      <path
         id="path10"
         d="m 1042.461,280.571 1.097,-203.716 c 1.643,-15.331 -35.598,-6.023 -13.69,-17.521 39.429,0.546 75.021,-1.096 113.903,1.092 -0.551,8.217 -13.69,3.836 -15.883,12.6 15.883,63.522 40.524,124.308 62.977,185.093 l 4.928,-4.928 60.239,-176.335 c -0.551,-3.829 -2.739,-7.666 -6.024,-10.404 -4.933,1.096 -8.763,-0.546 -12.047,-3.285 l 1.092,-3.831 h 179.073 c 2.734,10.406 12.593,20.806 7.666,30.666 -16.979,-31.217 -56.954,-21.908 -88.169,-21.908 l -7.116,8.763 -1.097,73.929 c 13.145,10.952 33.404,-0.546 50.38,4.929 2.193,1.096 3.835,4.381 1.096,6.023 -15.331,7.12 -39.427,-4.382 -50.379,9.86 l -1.097,104.042 c 0.546,5.479 7.121,9.309 12.049,9.859 31.215,-4.381 75.02,13.145 89.26,-24.642 h 6.025 c -2.74,12.048 -6.025,23.546 -13.69,33.404 -45.452,-0.551 -91.45,1.092 -135.812,-1.096 0.552,-12.594 20.812,-0.546 19.715,-16.43 l -1.092,-206.449 c -7.671,-4.928 -18.071,-6.024 -27.385,-3.836 l -10.951,12.599 -75.572,215.212 c -2.188,2.734 -4.927,4.382 -8.758,3.831 l -6.023,-8.763 -73.929,-212.474 c -6.57,-10.404 -20.811,-11.496 -32.308,-8.763 l -4.932,6.024 V 280.57 c 1.642,8.212 12.046,7.115 18.621,8.758 v 4.932 c -20.265,1.092 -45.452,3.831 -62.977,-2.738 5.478,-7.12 18.071,0.001 20.81,-10.951 z" />
      <path
         id="path12"
         d="M 1460.292,279.475 1461.389,90 c 0.546,-10.406 -14.787,-3.285 -13.69,-13.146 37.786,-22.452 89.261,-29.568 128.689,-6.568 17.521,15.331 23.544,37.234 18.617,60.784 -3.83,15.332 -15.332,32.307 -31.211,38.331 l -29.573,8.763 71.735,101.311 c 5.478,9.854 18.623,4.927 23.55,13.689 -12.048,3.831 -27.927,2.188 -40.524,1.097 -28.478,-41.071 -61.331,-79.407 -84.33,-122.665 25.187,-2.194 52.021,-7.121 64.615,-31.763 6.024,-16.975 4.927,-39.429 -3.831,-54.762 -12.048,-14.24 -27.38,-21.356 -46.002,-19.713 -9.854,1.092 -20.261,2.188 -28.473,8.758 l -6.023,10.955 -2.193,190.567 c 0.551,6.023 4.927,10.957 10.951,12.048 4.382,-0.546 7.12,1.643 10.956,2.738 v 3.836 c -20.811,1.091 -44.359,2.734 -64.074,-1.097 2.737,-8.761 18.07,-2.737 19.714,-13.688 z" />
      <path
         id="path14"
         d="m 1629.502,248.259 c 12.594,16.43 28.478,33.955 49.283,38.338 18.071,3.829 36.144,0 49.833,-10.957 11.502,-12.048 16.43,-26.83 14.787,-44.355 -16.976,-52.022 -78.857,-59.142 -105.141,-104.048 -6.574,-17.521 -4.381,-39.975 7.116,-54.21 22.452,-26.289 61.335,-17.526 90.358,-12.6 4.927,0 8.212,-7.666 12.594,-4.927 2.192,14.787 11.502,29.573 6.023,44.355 -12.594,-13.14 -24.642,-30.114 -43.259,-34.495 -15.333,-2.194 -33.404,-2.74 -44.355,9.854 -12.048,9.309 -12.599,24.642 -9.86,38.331 30.12,48.742 127.048,63.524 106.237,138.55 -6.023,22.453 -27.926,40.524 -50.93,44.355 -22.999,5.478 -43.26,-3.831 -65.161,-6.024 -4.933,1.644 -4.933,11.502 -11.502,6.024 -3.284,-15.333 -8.213,-29.568 -9.859,-45.452 z" />
      <path
         id="path16"
         d="M 1792.696,276.735 V 70.286 c -2.739,-9.309 -26.289,-0.546 -14.787,-12.048 19.163,-1.096 44.355,-3.836 59.142,2.188 -4.927,6.575 -19.167,1.648 -20.811,13.691 -1.642,65.165 -1.642,144.022 0,207.545 4.382,6.024 12.594,4.382 18.618,6.024 1.097,7.665 -7.666,6.023 -12.594,6.574 -16.429,-1.097 -34.501,2.188 -49.282,-2.738 2.734,-8.763 18.617,-2.193 19.714,-14.787 z" />
      <path
         id="path18"
         d="m 1855.663,56.595 157.167,2.739 c 3.285,12.048 11.497,23.545 9.854,35.593 -9.309,-1.643 -9.854,-13.139 -18.617,-18.072 -12.048,-14.781 -32.858,-8.763 -50.93,-10.404 l -9.855,10.404 c 0,67.906 -4.381,137.999 -1.096,204.808 4.381,7.666 22.998,0 17.525,11.502 -21.356,-0.546 -42.713,0.546 -62.978,-1.643 2.192,-10.951 24.642,-2.193 21.906,-19.714 l 1.644,-197.691 c -10.956,-11.498 -32.312,-9.855 -47.095,-6.024 -13.69,1.647 -20.265,16.429 -28.478,25.737 l -4.927,-2.188 c 3.287,-12.593 7.118,-25.737 15.88,-35.047 z" />
      <path
         id="path20"
         d="m 2036.378,22.095 c 6.574,0.55 15.883,1.642 16.975,9.859 1.647,8.757 -1.092,17.521 -9.854,19.714 -8.212,1.643 -17.526,-1.097 -19.714,-9.859 -2.19,-9.308 3.83,-18.072 12.593,-19.714 z" />
      <path
         id="path22"
         d="M 2141.524,280.571 2078.001,70.286 c -3.285,-4.381 -2.74,-14.236 -10.957,-13.69 -24.642,73.378 -49.283,146.211 -73.924,219.043 l -11.503,10.957 c -2.737,2.188 -10.404,0.546 -8.211,6.568 l 38.331,2.188 4.928,-3.83 c -1.643,-5.479 -11.498,-3.285 -13.689,-9.86 6.573,-24.641 9.858,-50.925 25.737,-71.735 20.265,0 38.883,0 60.784,0 l 7.121,4.928 c 7.665,21.906 17.525,42.712 18.617,66.808 -2.74,8.217 -12.048,4.934 -18.617,7.667 v 4.932 c 20.259,1.644 44.354,1.644 62.978,0 -1.097,-8.218 -14.242,-3.837 -18.072,-13.691 z m -53.67,-80.499 -58.045,-1.097 31.216,-96.381 c 12.043,29.573 20.261,63.522 30.665,95.285 z" />
      <path
         id="path24"
         d="m 2093.329,22.095 c 9.308,-2.188 18.07,4.381 19.714,12.594 -0.552,6.574 -3.285,14.241 -9.86,16.979 -8.212,1.091 -16.429,-0.551 -20.26,-8.217 -3.836,-8.762 1.642,-18.616 10.406,-21.356 z" />
      <path
         id="path26"
         d="m 2134.951,58.239 156.07,1.096 c 6.023,11.497 11.502,24.642 10.95,37.235 -10.95,-4.928 -14.781,-22.453 -28.471,-26.283 -15.333,-1.098 -42.168,-9.86 -50.386,7.666 l -2.733,201.522 c 2.188,10.95 27.38,3.831 17.521,14.786 h -59.689 l -3.835,-3.836 c 5.479,-7.666 19.714,0 22.453,-12.594 l 3.836,-198.782 c -0.551,-7.12 -8.217,-12.048 -14.787,-12.599 -16.976,-0.545 -32.858,0.551 -45.998,8.764 -7.671,6.022 -9.858,20.811 -19.714,18.616 1.093,-13.138 6.02,-26.282 14.783,-35.591 z" />
      <path
         id="path28"
         d="m 822.038,545.612 c 10.404,3.836 16.975,17.526 26.288,24.647 16.975,13.689 43.259,19.713 64.069,9.854 14.786,-8.763 24.11,-23.546 25.738,-39.975 -2.739,-62.427 -77.76,-67.358 -103.497,-116.096 -5.478,-13.69 -5.478,-30.12 0,-44.355 10.951,-21.356 34.495,-29.573 58.045,-28.478 16.43,-1.096 31.763,13.69 47.109,1.097 h 3.271 c 3.835,14.236 8.212,29.569 7.666,43.259 -10.937,-3.285 -13.145,-16.424 -23.545,-22.999 -16.98,-12.594 -41.621,-15.878 -60.79,-5.473 -10.399,8.212 -14.235,18.618 -15.877,30.119 12.593,53.664 78.31,55.853 102.405,105.141 11.516,19.714 6.569,48.191 -4.913,66.262 -19.183,26.285 -51.495,27.927 -79.968,23.546 -10.956,1.096 -25.191,-14.787 -32.312,1.642 H 830.8 c -5.458,-15.332 -8.211,-32.858 -8.762,-48.191 z" />
      <path
         id="path30"
         d="m 1002.751,353.949 c 46.002,58.046 83.237,123.212 129.785,181.262 3.836,-54.765 2.739,-115 1.111,-169.214 -2.753,-9.309 -25.207,-1.098 -14.801,-12.048 15.879,0 32.858,-1.097 48.191,1.097 -2.739,8.758 -18.623,2.188 -19.715,14.782 l -2.724,221.235 c -12.608,6.574 -9.324,-8.757 -13.705,-14.781 -41.621,-59.693 -82.142,-121.575 -125.951,-179.07 -3.836,55.854 -2.718,123.212 -1.096,181.259 4.381,7.12 15.883,1.097 17.524,10.405 -15.331,3.285 -36.693,3.285 -50.929,0 1.642,-8.763 18.616,-2.739 19.714,-15.333 l 1.097,-197.692 c -6.575,-8.212 -12.594,-15.879 -23,-16.975 v -3.831 z" />
      <path
         id="path32"
         d="M 751.944,358.877 C 714.705,346.829 668.16,351.21 639.137,377.499 596.42,415.83 593.685,483.185 610.66,534.115 c 14.787,33.95 49.834,59.688 86.537,60.785 41.076,3.284 77.745,-10.406 101.295,-43.265 23.545,-34.495 25.737,-85.426 14.782,-125.951 -8.211,-28.471 -32.287,-58.045 -61.33,-66.807 z m 12.063,203.715 c -19.183,21.356 -48.752,26.284 -76.683,19.715 -27.381,-7.121 -44.355,-35.052 -54.21,-59.144 -13.124,-53.118 -7.666,-115.55 38.331,-149.5 16.43,-12.048 40.525,-13.146 60.239,-8.764 36.689,8.218 56.403,47.646 60.799,81.596 5.459,43.264 -1.111,84.88 -28.476,116.097 z" />
      <path
         id="path34"
         d="m 1326.391,580.114 -67.906,-219.044 -6.023,-7.12 -3.831,2.188 -71.74,216.309 -8.764,10.952 c -2.734,5.478 -13.689,-1.644 -10.951,7.665 l 45.472,1.098 c 3.815,-11.502 -13.71,-2.739 -15.897,-12.048 6.569,-24.642 9.854,-52.022 25.737,-71.736 22.453,0 50.925,-7.12 69.548,6.024 7.666,21.356 15.333,42.167 16.975,65.712 -2.739,9.309 -17.505,1.642 -19.714,10.95 18.618,4.383 40.521,1.644 60.785,2.739 10.949,-10.405 -10.408,-5.473 -13.691,-13.689 z m -113.904,-84.33 c 10.404,-32.312 20.806,-65.717 32.308,-96.382 11.502,31.763 21.902,64.62 29.573,97.475 z" />
      <path
         id="path36"
         d="m 1509.295,488.664 c -10.399,-17.526 -29.022,-24.096 -47.094,-28.477 3.836,-3.285 8.218,-4.382 12.599,-6.57 20.826,-9.859 30.664,-31.217 29.568,-54.215 -3.285,-17.525 -13.689,-38.883 -33.404,-43.265 -38.332,-9.854 -85.426,-5.473 -113.903,19.715 l 12.594,7.666 3.836,179.075 c -1.097,8.212 -11.503,8.758 -14.787,13.689 4.382,6.024 12.048,10.951 19.714,12.594 42.168,9.854 98.024,12.048 127.048,-26.283 13.689,-19.714 15.877,-53.119 3.829,-73.929 z m -33.403,79.952 c -16.976,17.521 -47.642,18.066 -68.998,9.855 l -9.838,-10.951 c -1.112,-61.882 -3.852,-125.951 -2.755,-190.021 7.116,-13.146 22.447,-16.43 37.234,-16.43 12.594,0.546 24.642,2.733 34.502,9.854 19.713,15.883 15.332,42.712 8.763,62.978 -13.145,21.357 -38.338,22.999 -61.867,25.188 -6.039,3.284 0.531,8.218 3.815,9.859 25.739,-1.642 53.118,-1.096 66.81,21.902 12.068,23 9.859,58.051 -7.666,77.766 z" />
      <path
         id="path38"
         d="m 1551.456,575.186 2.193,-189.475 c 0,-8.764 -10.956,-4.383 -13.145,-10.952 20.261,-21.355 54.215,-24.646 84.88,-22.453 21.903,-0.546 41.07,8.212 54.762,26.284 8.763,14.24 12.593,33.404 7.119,50.38 -4.927,24.646 -31.747,39.979 -54.215,43.264 -2.738,0.546 -6.022,-0.546 -7.666,2.738 l 76.668,106.237 c 5.474,6.024 17.521,0 18.618,9.854 -13.69,0 -29.574,5.479 -40.524,0 l -84.335,-119.928 c 3.835,-12.048 24.096,-2.188 33.408,-8.763 12.044,-4.376 25.733,-13.139 30.666,-25.732 8.763,-19.169 7.667,-46.549 -8.217,-61.882 -14.236,-15.883 -38.878,-15.333 -58.046,-10.956 -5.458,2.739 -12.048,6.024 -14.787,12.048 -2.739,65.166 -5.473,135.265 -2.739,202.62 3.29,9.858 26.835,1.096 17.527,12.592 -20.811,-0.545 -42.714,2.194 -61.882,-2.188 2.194,-10.403 19.169,0.002 19.715,-13.688 z" />
      <path
         id="path40"
         d="m 1708.076,355.046 59.688,1.092 c -4.381,7.666 -20.26,4.381 -21.341,17.526 l 1.627,175.238 c 3.285,14.236 15.898,25.187 28.477,32.308 20.28,9.309 46.544,3.831 65.166,-4.927 13.14,-9.313 22.448,-21.907 23.546,-37.24 0,-58.596 5.492,-113.903 0,-171.949 -2.72,-7.666 -16.976,-2.193 -16.976,-10.956 16.976,0 35.047,-5.473 51.476,0 -1.096,10.406 -17.525,0.552 -19.714,13.69 l -3.836,173.051 c -1.642,17.521 -14.235,32.308 -29.568,42.161 -31.761,14.242 -78.855,16.98 -106.237,-9.854 -13.144,-10.952 -15.332,-26.835 -16.975,-42.168 V 367.094 c -2.739,-9.309 -26.289,-0.551 -15.333,-12.048 z" />
      <path
         id="path42"
         d="m 1771.602,313.974 c 6.575,1.092 15.337,1.644 16.979,10.401 2.188,7.671 -2.192,18.071 -10.957,20.811 -7.665,-0.546 -16.423,-2.739 -18.616,-10.951 -2.19,-9.308 3.835,-18.617 12.594,-20.261 z" />
      <path
         id="path44"
         d="m 1829.668,313.974 c 8.217,-2.192 15.863,3.285 18.603,10.401 0.546,8.217 -1.098,15.884 -8.764,19.713 -7.119,0.552 -19.162,0 -21.356,-9.854 -2.739,-9.307 3.835,-16.974 11.517,-20.26 z" />
      <path
         id="path46"
         d="m 1970.383,356.137 c 23.004,-7.115 50.931,-8.212 72.837,1.098 6.019,2.192 9.309,-3.831 13.691,-6.024 9.309,10.405 12.594,27.38 15.878,42.166 -12.048,8.765 -12.594,-12.048 -21.902,-14.786 -17.525,-17.521 -45.452,-24.096 -67.905,-13.69 -45.452,22.999 -50.93,72.833 -53.117,118.837 3.283,34.495 10.95,68.996 41.616,89.807 16.429,7.666 37.239,11.497 55.856,6.569 17.526,-4.381 30.666,-20.811 44.355,-32.308 8.763,4.382 -0.545,9.854 -1.092,14.787 -25.191,29.023 -65.166,37.781 -101.294,26.283 -45.467,-16.429 -61.896,-63.522 -65.712,-106.786 10e-4,-50.925 16.41,-104.044 66.789,-125.953 z" />
      <path
         id="path48"
         d="m 2104.006,575.186 c 2.188,-68.451 0.546,-141.834 1.091,-208.092 -4.927,-5.478 -12.047,-6.023 -18.616,-7.121 v -4.927 c 19.713,-1.643 42.167,-1.643 61.881,0 -0.552,12.048 -17.526,1.092 -19.714,14.782 -1.643,29.573 -1.643,61.882 0,91.455 l 83.783,-90.358 c 3.836,-12.594 -13.145,-7.667 -13.145,-15.879 16.979,-1.643 36.694,-1.643 54.215,0 -1.643,9.854 -15.332,5.473 -21.356,12.048 l -79.952,84.33 v 3.836 l 100.213,121.022 c 4.932,8.758 16.979,6.024 20.811,13.689 -10.952,3.831 -25.738,2.735 -37.235,1.092 -38.882,-42.713 -70.098,-87.068 -107.333,-129.78 -4.365,37.785 -2.739,78.855 -1.096,117.188 3.836,9.309 18.617,-0.547 18.071,11.501 h -62.973 c 1.091,-12.597 19.162,-0.549 21.355,-14.786 z" />
    </g>
  </g>
</svg>
